<mxfile host="app.diagrams.net" modified="2023-06-28T13:22:02.199Z" agent="Mozilla/5.0 (Windows NT 10.0; Win64; x64) AppleWebKit/537.36 (KHTML, like Gecko) Chrome/114.0.0.0 Safari/537.36" etag="ow_btbIlPLXGseDHBSeR" version="21.5.1" type="github">
  <diagram name="Page-1" id="SnVdRLN-_1A_OSKU2oY6">
    <mxGraphModel dx="1050" dy="549" grid="1" gridSize="10" guides="1" tooltips="1" connect="1" arrows="1" fold="1" page="1" pageScale="1" pageWidth="850" pageHeight="1100" math="0" shadow="0">
      <root>
        <mxCell id="0" />
        <mxCell id="1" parent="0" />
        <mxCell id="2sN726RHxl2t0YSqJnx4-3" value="Login" style="edgeStyle=orthogonalEdgeStyle;rounded=0;orthogonalLoop=1;jettySize=auto;html=1;entryX=0.563;entryY=0;entryDx=0;entryDy=0;entryPerimeter=0;fontSize=14;" parent="1" source="2sN726RHxl2t0YSqJnx4-1" target="2sN726RHxl2t0YSqJnx4-2" edge="1">
          <mxGeometry relative="1" as="geometry" />
        </mxCell>
        <mxCell id="2sN726RHxl2t0YSqJnx4-1" value="Staff" style="shape=umlActor;verticalLabelPosition=bottom;verticalAlign=top;html=1;outlineConnect=0;fontSize=14;" parent="1" vertex="1">
          <mxGeometry x="30" y="180" width="30" height="60" as="geometry" />
        </mxCell>
        <mxCell id="2sN726RHxl2t0YSqJnx4-6" style="edgeStyle=orthogonalEdgeStyle;rounded=0;orthogonalLoop=1;jettySize=auto;html=1;" parent="1" source="2sN726RHxl2t0YSqJnx4-2" target="2sN726RHxl2t0YSqJnx4-5" edge="1">
          <mxGeometry relative="1" as="geometry" />
        </mxCell>
        <mxCell id="2sN726RHxl2t0YSqJnx4-7" value="Display home screen" style="edgeStyle=orthogonalEdgeStyle;rounded=0;orthogonalLoop=1;jettySize=auto;html=1;fontSize=14;" parent="1" source="2sN726RHxl2t0YSqJnx4-2" target="2sN726RHxl2t0YSqJnx4-5" edge="1">
          <mxGeometry relative="1" as="geometry" />
        </mxCell>
        <mxCell id="2sN726RHxl2t0YSqJnx4-2" value="" style="verticalLabelPosition=bottom;verticalAlign=top;html=1;shadow=0;dashed=0;strokeWidth=1;shape=mxgraph.android.tab2;strokeColor=#c0c0c0;direction=north;" parent="1" vertex="1">
          <mxGeometry x="160" y="180" width="100" height="70" as="geometry" />
        </mxCell>
        <mxCell id="2sN726RHxl2t0YSqJnx4-19" style="edgeStyle=orthogonalEdgeStyle;rounded=0;orthogonalLoop=1;jettySize=auto;html=1;entryX=0.457;entryY=0.04;entryDx=0;entryDy=0;entryPerimeter=0;" parent="1" source="2sN726RHxl2t0YSqJnx4-5" target="2sN726RHxl2t0YSqJnx4-20" edge="1">
          <mxGeometry relative="1" as="geometry">
            <mxPoint x="620" y="215" as="targetPoint" />
          </mxGeometry>
        </mxCell>
        <mxCell id="2sN726RHxl2t0YSqJnx4-27" value="Select&amp;nbsp; pin code" style="edgeLabel;html=1;align=center;verticalAlign=middle;resizable=0;points=[];fontSize=14;" parent="2sN726RHxl2t0YSqJnx4-19" vertex="1" connectable="0">
          <mxGeometry x="-0.2712" y="-3" relative="1" as="geometry">
            <mxPoint y="-3" as="offset" />
          </mxGeometry>
        </mxCell>
        <mxCell id="2sN726RHxl2t0YSqJnx4-5" value="" style="verticalLabelPosition=bottom;verticalAlign=top;html=1;shadow=0;dashed=0;strokeWidth=1;shape=mxgraph.android.tab2;strokeColor=#c0c0c0;direction=north;" parent="1" vertex="1">
          <mxGeometry x="420" y="180" width="100" height="70" as="geometry" />
        </mxCell>
        <mxCell id="nK3qLVdeOrHSDVej1fRH-6" style="edgeStyle=orthogonalEdgeStyle;rounded=0;orthogonalLoop=1;jettySize=auto;html=1;entryX=0.963;entryY=0.498;entryDx=0;entryDy=0;entryPerimeter=0;" edge="1" parent="1" source="2sN726RHxl2t0YSqJnx4-20" target="nK3qLVdeOrHSDVej1fRH-1">
          <mxGeometry relative="1" as="geometry" />
        </mxCell>
        <mxCell id="nK3qLVdeOrHSDVej1fRH-7" value="Enter pin code" style="edgeLabel;html=1;align=center;verticalAlign=middle;resizable=0;points=[];" vertex="1" connectable="0" parent="nK3qLVdeOrHSDVej1fRH-6">
          <mxGeometry x="-0.2802" y="1" relative="1" as="geometry">
            <mxPoint y="-1" as="offset" />
          </mxGeometry>
        </mxCell>
        <mxCell id="2sN726RHxl2t0YSqJnx4-20" value="" style="verticalLabelPosition=bottom;verticalAlign=top;html=1;shadow=0;dashed=0;strokeWidth=1;shape=mxgraph.android.tab2;strokeColor=#c0c0c0;direction=north;" parent="1" vertex="1">
          <mxGeometry x="665" y="180" width="100" height="70" as="geometry" />
        </mxCell>
        <mxCell id="2sN726RHxl2t0YSqJnx4-30" value="" style="verticalLabelPosition=bottom;verticalAlign=top;html=1;shape=mxgraph.flowchart.or;" parent="1" vertex="1">
          <mxGeometry x="60" y="410" width="20" height="20" as="geometry" />
        </mxCell>
        <mxCell id="nK3qLVdeOrHSDVej1fRH-10" style="edgeStyle=orthogonalEdgeStyle;rounded=0;orthogonalLoop=1;jettySize=auto;html=1;entryX=0.494;entryY=0.984;entryDx=0;entryDy=0;entryPerimeter=0;" edge="1" parent="1" source="nK3qLVdeOrHSDVej1fRH-1" target="nK3qLVdeOrHSDVej1fRH-8">
          <mxGeometry relative="1" as="geometry" />
        </mxCell>
        <mxCell id="nK3qLVdeOrHSDVej1fRH-11" value="Change to&lt;br&gt;dashboard" style="edgeLabel;html=1;align=center;verticalAlign=middle;resizable=0;points=[];" vertex="1" connectable="0" parent="nK3qLVdeOrHSDVej1fRH-10">
          <mxGeometry x="0.068" y="1" relative="1" as="geometry">
            <mxPoint as="offset" />
          </mxGeometry>
        </mxCell>
        <mxCell id="nK3qLVdeOrHSDVej1fRH-1" value="" style="verticalLabelPosition=bottom;verticalAlign=top;html=1;shadow=0;dashed=0;strokeWidth=1;shape=mxgraph.android.tab2;strokeColor=#c0c0c0;direction=north;" vertex="1" parent="1">
          <mxGeometry x="665" y="300" width="100" height="70" as="geometry" />
        </mxCell>
        <mxCell id="nK3qLVdeOrHSDVej1fRH-13" value="" style="edgeStyle=orthogonalEdgeStyle;rounded=0;orthogonalLoop=1;jettySize=auto;html=1;" edge="1" parent="1" source="nK3qLVdeOrHSDVej1fRH-8" target="nK3qLVdeOrHSDVej1fRH-12">
          <mxGeometry relative="1" as="geometry" />
        </mxCell>
        <mxCell id="nK3qLVdeOrHSDVej1fRH-14" value="Select functionalities" style="edgeLabel;html=1;align=center;verticalAlign=middle;resizable=0;points=[];" vertex="1" connectable="0" parent="nK3qLVdeOrHSDVej1fRH-13">
          <mxGeometry x="0.005" y="-4" relative="1" as="geometry">
            <mxPoint as="offset" />
          </mxGeometry>
        </mxCell>
        <mxCell id="nK3qLVdeOrHSDVej1fRH-8" value="" style="verticalLabelPosition=bottom;verticalAlign=top;html=1;shadow=0;dashed=0;strokeWidth=1;shape=mxgraph.android.tab2;strokeColor=#c0c0c0;direction=north;" vertex="1" parent="1">
          <mxGeometry x="470" y="300" width="100" height="70" as="geometry" />
        </mxCell>
        <mxCell id="nK3qLVdeOrHSDVej1fRH-19" style="edgeStyle=orthogonalEdgeStyle;rounded=0;orthogonalLoop=1;jettySize=auto;html=1;entryX=0.494;entryY=1.028;entryDx=0;entryDy=0;entryPerimeter=0;" edge="1" parent="1" source="nK3qLVdeOrHSDVej1fRH-12" target="nK3qLVdeOrHSDVej1fRH-15">
          <mxGeometry relative="1" as="geometry" />
        </mxCell>
        <mxCell id="nK3qLVdeOrHSDVej1fRH-24" value="Log out" style="edgeLabel;html=1;align=center;verticalAlign=middle;resizable=0;points=[];" vertex="1" connectable="0" parent="nK3qLVdeOrHSDVej1fRH-19">
          <mxGeometry x="-0.1599" y="1" relative="1" as="geometry">
            <mxPoint x="-1" as="offset" />
          </mxGeometry>
        </mxCell>
        <mxCell id="nK3qLVdeOrHSDVej1fRH-12" value="" style="verticalLabelPosition=bottom;verticalAlign=top;html=1;shadow=0;dashed=0;strokeWidth=1;shape=mxgraph.android.tab2;strokeColor=#c0c0c0;direction=north;" vertex="1" parent="1">
          <mxGeometry x="230" y="300" width="100" height="70" as="geometry" />
        </mxCell>
        <mxCell id="nK3qLVdeOrHSDVej1fRH-21" style="edgeStyle=orthogonalEdgeStyle;rounded=0;orthogonalLoop=1;jettySize=auto;html=1;entryX=0.5;entryY=0;entryDx=0;entryDy=0;entryPerimeter=0;" edge="1" parent="1" source="nK3qLVdeOrHSDVej1fRH-15" target="2sN726RHxl2t0YSqJnx4-30">
          <mxGeometry relative="1" as="geometry" />
        </mxCell>
        <mxCell id="nK3qLVdeOrHSDVej1fRH-22" value="End" style="edgeLabel;html=1;align=center;verticalAlign=middle;resizable=0;points=[];" vertex="1" connectable="0" parent="nK3qLVdeOrHSDVej1fRH-21">
          <mxGeometry x="-0.15" y="-2" relative="1" as="geometry">
            <mxPoint x="32" as="offset" />
          </mxGeometry>
        </mxCell>
        <mxCell id="nK3qLVdeOrHSDVej1fRH-15" value="" style="verticalLabelPosition=bottom;verticalAlign=top;html=1;shadow=0;dashed=0;strokeWidth=1;shape=mxgraph.android.tab2;strokeColor=#c0c0c0;direction=north;" vertex="1" parent="1">
          <mxGeometry x="20" y="300" width="100" height="70" as="geometry" />
        </mxCell>
      </root>
    </mxGraphModel>
  </diagram>
</mxfile>
